<?xml version="1.0" encoding="UTF-8"?>
<svg xmlns="http://www.w3.org/2000/svg" viewBox="0 0 2028 592" width="2028" height="592">

<path d="M279.81 100.45C305.44 97.68 333.8 100.72 358.1 109.42C385.04 119.08 409.29 133.76 430.3 153.19C442.9 164.83 453.36 178.51 462.62 192.88C527.63 293.74 489.82 433.24 384.13 488.62C362.5 499.95 338.74 507.5 314.33 509.57C289.06 511.7 263.31 509.32 239.16 501.42C143.58 470.14 82.91 371.46 99.43 271.79C101.48 259.37 104.02 246.77 108.5 234.95C117.25 211.91 129.03 190.32 144.97 171.45C159.93 153.75 177.33 138.54 197.47 126.96C223.2 112.18 250.32 103.64 279.81 100.45ZM371.19 476.5C374.92 476.64 378.8 473.48 382.1 471.62C390.91 466.65 399.39 461.16 407.32 454.86C442.89 426.6 466.72 385.53 475.6 341.2C493.99 249.44 440.35 150.2 348.66 123.72C332.94 119.18 316.91 116.4 300.5 116.24C276.14 116.01 253.04 120.29 230.25 128.71C217.19 133.53 204.52 140.61 193.26 148.76C146.7 182.43 117.3 231.72 112.88 289.5C108.4 348.14 132.24 409 176.75 447.74C187.09 456.74 198.11 464.85 210.22 471.33C214.71 473.73 219.52 476.83 224.5 477.86C222.67 472.99 217.33 468.57 214.19 464.3C207.73 455.52 201.87 446.2 197.18 436.34C180.53 401.31 176.87 360.28 197.48 325.95C201.63 319.03 206.9 313.48 212.16 307.5C208.41 292.15 206.07 284.95 210.39 268.77C212.25 261.81 216.99 255.95 218.81 249.5C207.22 233.84 202.84 222.36 202.87 202.5C202.88 197.32 202.48 188.71 205.5 184.38C209.88 187.14 213.58 191.56 217.32 195.17C223.45 201.09 230.09 206.41 236.6 211.9C240.61 215.28 244.76 219.56 249.5 221.76C254.88 220.05 260.07 217.65 265.59 216.23C291.54 209.56 320.12 211.33 344.5 222.54C349.22 220.51 353.33 216.06 357.21 212.7C364.17 206.66 371.12 200.67 377.74 194.24C381.12 190.95 384.39 186.47 388.5 184.29C390.4 188.56 390.46 193.83 390.86 198.5C392.78 220.74 387.97 231.44 376.66 249.5C379.85 257.75 384.55 264.95 386.56 273.83C389.15 285.31 386.59 295.55 383.52 306.5C385.44 309.63 388.3 312.03 390.47 315.04C397.16 324.28 402.76 334.23 406.45 345.04C418.22 379.53 410 415.89 392.29 446.77C388.33 453.66 384 460.38 379.13 466.67C376.55 470 373.57 473.04 371.19 476.5ZM594.5 216.01C612.5 267.22 630.5 318.43 648.5 369.64C667.83 318.54 687.17 267.44 706.5 216.34C712.62 214.65 729.51 214.56 735.49 216.5C743.1 233.94 748.83 252.27 755.48 270.08C761.9 287.3 768.74 304.45 774.58 321.87C778.22 332.74 782.01 343.69 786.24 354.34C788.12 359.07 789.19 365.44 792.5 369.13C810.83 318.22 829.17 267.31 847.5 216.4C853 214.64 868.41 214.33 873.72 216.5C850.64 278.84 827.57 341.18 804.5 403.51C796.5 403.51 788.5 403.51 780.5 403.51C777.06 398.73 775.75 392.29 773.62 386.79C770.14 377.83 767.01 368.77 763.64 359.77C754.42 335.09 745.47 310.23 735.68 285.77C732.13 276.89 728.9 267.76 725.69 258.74C724.4 255.13 723.38 249.86 720.5 247.4C700.5 299.3 680.5 351.2 660.5 403.09C654.29 404.51 641.58 404.45 635.5 402.51C613.29 340.5 591.09 278.5 568.88 216.5C574.29 214.64 588.86 214.47 594.5 216.01ZM992.5 215.52C995.07 225.27 993.37 246.45 993.37 257.5C993.38 284.17 993.36 310.83 993.35 337.5C993.35 345.83 993.4 354.17 993.37 362.5C993.35 367.77 992.9 373.31 993.75 378.5C1001.96 380.85 1016.49 379.38 1025.5 379.39C1045.83 379.39 1066.17 379.62 1086.5 379.48C1096.06 379.41 1111.15 378.05 1120.03 379.95C1120.03 387.81 1120.03 395.67 1120.03 403.53C1069.65 403.53 1019.27 403.53 968.89 403.53C968.89 340.86 968.89 278.19 968.89 215.52C976.76 215.52 984.63 215.52 992.5 215.52ZM1381.17 215.66C1381.17 223.6 1381.17 231.55 1381.17 239.5C1371.04 241.65 1356.17 240.09 1345.5 240.07C1322.5 240.04 1299.5 240.03 1276.5 240.08C1260.91 240.1 1239.92 238.22 1235.28 257.68C1234.44 261.2 1234.27 264.89 1234.3 268.5C1234.33 271.75 1234.61 274.93 1235.46 278.08C1240.71 297.43 1260.6 295 1276.5 295.07C1292.83 295.14 1309.17 295.03 1325.5 295.13C1345.62 295.25 1368.03 296.52 1381.1 314.4C1387.66 323.38 1390.31 334.55 1390.46 345.5C1390.56 353.05 1390.56 360.6 1388.46 367.91C1387.05 372.81 1385.19 377.67 1382.47 382C1368.39 404.4 1343.82 403.48 1320.5 403.57C1301.83 403.63 1283.17 403.55 1264.5 403.58C1254.17 403.6 1243.83 403.46 1233.5 403.55C1228.35 403.59 1222.21 404.55 1217.48 402.5C1217.48 395.17 1217.48 387.83 1217.48 380.5C1226.2 377.75 1242.86 379.39 1252.5 379.44C1275.5 379.55 1298.5 379.48 1321.5 379.4C1335.9 379.35 1354.95 381.5 1362.68 366.21C1368.46 354.78 1367.87 333.9 1357.04 325.47C1351.23 320.94 1343.66 319.76 1336.5 319.55C1328.18 319.32 1319.82 319.57 1311.5 319.57C1303.17 319.57 1294.83 319.46 1286.5 319.45C1259.35 319.42 1224.96 322.5 1213.39 291.2C1211.89 287.12 1210.65 282.84 1210.26 278.5C1209.57 270.89 1209.27 262.74 1210.56 255.18C1211.4 250.23 1212.82 245.09 1215.07 240.6C1226.91 216.94 1249.89 215.28 1273.5 215.28C1283.83 215.27 1294.17 215.31 1304.5 215.32C1320.5 215.32 1336.5 215.39 1352.5 215.38C1361.99 215.37 1371.71 214.8 1381.17 215.66ZM1664.5 215.44C1666.64 222.63 1665.92 232.57 1664.96 240.06C1604.24 240.06 1543.51 240.06 1482.78 240.06C1482.78 231.85 1482.78 223.65 1482.78 215.44C1543.36 215.44 1603.93 215.44 1664.5 215.44ZM1846.5 307.36C1852.33 303.7 1860.48 287.54 1864.55 281.04C1873.88 266.18 1883.86 251.69 1893.49 237.02C1898.06 230.05 1902.18 222.38 1907.5 215.95C1913.56 214.67 1929.52 214.6 1935.29 216.5C1930.24 227.22 1922.09 237.14 1915.49 246.99C1903.45 264.99 1891.71 283.2 1879.64 301.18C1875.1 307.95 1870.57 314.74 1865.98 321.48C1863.87 324.57 1860.41 328.14 1859.35 331.77C1857.66 337.64 1859.01 345.42 1859 351.5C1858.98 362.17 1858.95 372.83 1858.98 383.5C1858.99 390.07 1859.48 396.94 1858.5 403.42C1850.83 403.42 1843.17 403.42 1835.5 403.42C1833.93 397.11 1834.83 390.02 1834.83 383.5C1834.83 371.5 1834.93 359.5 1834.82 347.5C1834.78 342.69 1835.68 336.66 1834.47 332C1833.5 328.22 1829.67 324.23 1827.49 321.03C1822.75 314.08 1818.1 307.06 1813.49 300.03C1801.62 281.92 1789.81 263.73 1777.65 245.81C1771.14 236.22 1764.4 226.56 1758.63 216.5C1764.72 214.63 1772.05 215.51 1778.5 215.46C1780.81 215.45 1784.3 214.8 1786.38 216.02C1788.9 217.49 1790.72 221.83 1792.25 224.25C1796 230.14 1799.92 235.93 1803.67 241.82C1814.13 258.27 1824.79 274.61 1835.65 290.79C1839.33 296.27 1842.44 302.17 1846.5 307.36ZM219.5 215.67C217.66 223.92 223.82 234.11 229.19 240.28C243.34 256.56 263.53 266.64 279.3 281.19C283.22 284.8 287.11 288.94 290.25 293.25C292.71 296.65 294.48 300.9 297.5 303.75C300.75 300.46 302.89 295.95 305.73 292.25C309.55 287.28 314.38 282.68 319.09 278.57C332.35 267.03 347.41 257.79 360.32 245.82C368.2 238.52 375.66 227.6 375.5 216.42C365.5 224 355.5 231.58 345.5 239.16C339.32 237.1 333.98 232.42 327.28 230.33C304.55 223.26 270.22 223.17 250.5 238.12C242.39 234.82 226.54 221.77 219.5 215.67ZM230.5 260.52C225.77 264.42 223.6 272.52 222.75 278.49C222.15 282.75 222.08 287.26 222.7 291.52C225.53 310.87 239.64 317.1 254.73 325.76C262.44 330.19 270.2 335.7 276.31 342.19C281.51 347.73 286.26 353.87 290 360.49C292.53 364.96 294.31 370.35 297.5 374.28C300.62 369.49 302.6 363.94 305.49 358.97C309.32 352.37 314.3 346.53 319.67 341.16C325.92 334.93 333.3 329.76 341.02 325.53C357.15 316.7 369.65 311.91 373.09 291.5C373.83 287.08 373.69 282.91 373 278.5C372.07 272.55 370.04 265.1 365.5 260.98C360.61 264.82 355.73 268.66 350.84 272.5C351.63 275.79 352.8 279.09 352.82 282.5C352.91 294.03 343.97 303.92 332.71 305.44C326.31 306.31 321.55 302.91 315.64 302.5C309.59 311.23 303.55 319.97 297.5 328.7C291.5 319.73 285.5 310.75 279.5 301.78C274.15 303.47 269.33 305.93 263.5 305.32C252.15 304.15 243.02 293.96 242.93 282.5C242.91 279.14 244.08 275.73 244.92 272.5C240.12 268.51 235.31 264.51 230.5 260.52ZM257.5 281.93C256.39 288.55 262.22 292.62 268.55 291.5C266.98 287.68 261.04 284.34 257.5 281.93ZM338.5 281.6C334.66 284.9 330.83 288.2 326.99 291.5C333.95 293.62 339.94 288.75 338.5 281.6ZM1664.63 295.13C1666.49 302.34 1665.74 311.06 1665.23 318.5C1659.58 320.44 1652.54 319.38 1646.5 319.39C1633.83 319.39 1621.17 319.41 1608.5 319.44C1581.5 319.49 1554.5 319.4 1527.5 319.41C1512.74 319.42 1497.51 320.47 1482.83 319.12C1482.83 311.12 1482.83 303.12 1482.83 295.13C1543.43 295.13 1604.03 295.13 1664.63 295.13ZM220.5 320.12C211.33 326.45 204.26 343.15 201.18 353.56C189.02 394.55 208.18 437.48 235.72 467.76C241.68 474.31 251.21 485.46 258.87 489.59C263.51 492.09 270.34 492.25 275.5 492.95C280.16 493.59 284.61 494.62 289.19 493.5C290.71 477.1 289.51 459.99 289.5 443.5C289.49 411.49 292.27 383.4 270.66 356.81C260.16 343.91 247.98 338.49 234.05 330.43C229.02 327.52 225.22 323.29 220.5 320.12ZM374.5 320.26C371.69 322.73 369.19 325.42 366.09 327.56C361.23 330.93 355.76 333.27 350.56 336.04C340.76 341.26 332.21 348.08 325.01 356.54C313.64 369.92 306.73 387.13 304.64 404.5C303.2 416.54 304.51 429.37 304.54 441.5C304.58 458.78 303.65 476.26 304.74 493.5C309.3 494.65 313.84 493.67 318.5 493.02C323.87 492.27 330.19 491.96 335.12 489.56C341.87 486.28 347.74 479.71 353.02 474.51C379.6 448.32 399.5 410.44 397.33 372.5C396.51 358.23 391.8 343.46 384.13 331.36C381.67 327.48 378.75 322.09 374.5 320.26ZM1665.47 380.5C1665.47 387.83 1665.47 395.17 1665.47 402.5C1658.73 404.47 1650.55 403.59 1643.5 403.59C1630.5 403.58 1617.5 403.52 1604.5 403.53C1577.5 403.53 1550.5 403.57 1523.5 403.59C1515.17 403.59 1506.84 403.48 1498.52 403.49C1493.57 403.5 1488.38 404.07 1483.5 403.24C1481.68 397.77 1481.75 385.29 1483.5 379.77C1487.7 379.04 1492.23 379.48 1496.5 379.43C1506.5 379.32 1516.5 379.43 1526.5 379.42C1556.17 379.38 1585.83 379.42 1615.5 379.43C1626.83 379.43 1638.17 379.47 1649.5 379.42C1654.58 379.39 1660.91 378.22 1665.47 380.5Z" fill="#fcfbfc" fill-rule="evenodd" stroke="#fcfbfc" stroke-width="0.25" stroke-linejoin="round"/>
</svg>